<svg width="51" height="50" viewBox="0 0 51 50" fill="none" xmlns="http://www.w3.org/2000/svg">
<path fill-rule="evenodd" clip-rule="evenodd" d="M50.4467 26.1745C50.4467 22.398 48.2583 19.1326 45.0804 17.5772C45.7228 16.3494 46.0861 14.9526 46.0861 13.4709C46.0861 8.57176 42.1144 4.60025 37.215 4.60025C35.9538 4.60025 34.754 4.86343 33.6677 5.33787C32.2843 2.23944 29.176 0.0800171 25.5633 0.0800171C21.8983 0.0800171 18.7524 2.30239 17.3998 5.47297C16.2374 4.91365 14.9344 4.60025 13.5581 4.60025C8.6587 4.60025 4.68697 8.57176 4.68697 13.4709C4.68697 14.9835 5.06559 16.4077 5.73323 17.6538C2.63835 19.2382 0.52002 22.459 0.52002 26.1745C0.520019 29.5874 2.30732 32.5829 4.99704 34.2761C4.79591 35.0178 4.68858 35.798 4.68858 36.6034C4.68858 41.5025 8.66031 45.474 13.5597 45.474C14.82 45.474 16.019 45.2112 17.1047 44.7373C18.487 47.8385 21.5968 50.0003 25.2114 50.0003C28.8783 50.0003 32.0256 47.7756 33.377 44.6023C34.5389 45.161 35.8412 45.474 37.2166 45.474C42.116 45.474 46.0877 41.5025 46.0877 36.6034C46.0877 35.8344 45.9899 35.0883 45.806 34.3769C48.5866 32.7035 50.4467 29.6562 50.4467 26.1745Z" fill="#111111"/>
<path fill-rule="evenodd" clip-rule="evenodd" d="M34.1896 15.633C35.1096 16.2446 35.3596 17.4861 34.748 18.4061L24.6891 33.5367C23.9326 34.6747 22.3261 34.8409 21.3526 33.8819L15.6757 28.2901C14.8886 27.5148 14.8791 26.2484 15.6544 25.4614C16.4297 24.6744 17.6962 24.6649 18.4832 25.4401L22.583 29.4785L31.4164 16.1914C32.028 15.2714 33.2696 15.0214 34.1896 15.633Z" fill="white"/>
</svg>
